<svg width="512" height="512" viewBox="0 0 512 512" fill="none" xmlns="http://www.w3.org/2000/svg">
  <!-- Background Circle -->
  <circle cx="256" cy="256" r="240" fill="url(#gradient1)"/>
  
  <!-- Shield Icon -->
  <path d="M256 80L200 100C180 110 160 130 150 150L130 206C120 226 120 250 130 270L150 326C160 346 180 366 200 376L256 396L312 376C332 366 352 346 362 326L382 270C392 250 392 226 382 206L362 150C352 130 332 110 312 100L256 80Z" fill="white" opacity="0.9"/>
  
  <!-- Checkmark -->
  <path d="M220 256L240 276L292 224" stroke="url(#gradient2)" stroke-width="24" stroke-linecap="round" stroke-linejoin="round" fill="none"/>
  
  <!-- Gradient Definitions -->
  <defs>
    <linearGradient id="gradient1" x1="0%" y1="0%" x2="100%" y2="100%">
      <stop offset="0%" style="stop-color:#3B82F6;stop-opacity:1" />
      <stop offset="100%" style="stop-color:#6366F1;stop-opacity:1" />
    </linearGradient>
    <linearGradient id="gradient2" x1="0%" y1="0%" x2="100%" y2="100%">
      <stop offset="0%" style="stop-color:#3B82F6;stop-opacity:1" />
      <stop offset="100%" style="stop-color:#6366F1;stop-opacity:1" />
    </linearGradient>
  </defs>
</svg>

